<svg width="180" height="621" viewBox="0 0 180 621" fill="none" xmlns="http://www.w3.org/2000/svg">
<g clip-path="url(#clip0_24137_93095)">
<path d="M1.45359 200.2V0H90.2136C145.934 0 179.534 35.84 179.534 100.24C179.534 164.64 148.734 200.2 93.0136 200.2H1.45359ZM51.8536 41.16V159.04H85.1736C116.534 159.04 129.134 136.64 129.134 100.24C129.134 63.84 116.534 41.16 85.1736 41.16H51.8536Z" fill="#262424" fill-opacity="0.05"/>
<path d="M93.8 285.88C131.6 296.24 170.52 308.56 170.52 351.4C170.52 389.76 141.4 414.68 91.28 414.68C39.2 414.68 0 388.92 0 344.4H50.4C50.4 365.68 68.88 373.52 91.28 373.52C110.04 373.52 120.12 366.24 120.12 356.16C120.12 340.2 98.56 336.56 70.28 328.16C35.84 318.08 5.6 303.24 5.6 266.28C5.6 222.6 39.76 205.52 82.88 205.52C129.64 205.52 166.32 230.16 167.72 270.76H117.32C115.08 255.64 102.2 246.68 82.88 246.68C67.76 246.68 56 251.44 56 262.64C56 274.96 68.6 278.88 93.8 285.88Z" fill="#262424" fill-opacity="0.05"/>
<path d="M66.3458 505.12H146.706V546.28H66.3458V620.2H15.9458V420H164.906V461.16H66.3458V505.12Z" fill="#262424" fill-opacity="0.05"/>
<path d="M1.45359 830.2V630H90.2136C145.934 630 179.534 665.84 179.534 730.24C179.534 794.64 148.734 830.2 93.0136 830.2H1.45359ZM51.8536 671.16V789.04H85.1736C116.534 789.04 129.134 766.64 129.134 730.24C129.134 693.84 116.534 671.16 85.1736 671.16H51.8536Z" fill="#262424" fill-opacity="0.05"/>
</g>
<defs>
<clipPath id="clip0_24137_93095">
<rect width="180" height="621" fill="white"/>
</clipPath>
</defs>
</svg>
