<svg width="211" height="32" viewBox="0 0 211 32" fill="none" xmlns="http://www.w3.org/2000/svg">
<path d="M48.3046 27.4803V4.53307H59.59C62.2636 4.53307 64.5432 4.95283 66.4288 5.79237C68.3144 6.6319 69.7778 7.91919 70.791 9.62624C71.8041 11.3333 72.3107 13.4601 72.3107 15.9787C72.3107 18.4973 71.8041 20.6241 70.791 22.3312C69.7778 24.0382 68.3425 25.3255 66.4288 26.1651C64.5432 27.0326 62.2636 27.4523 59.59 27.4523H48.3046V27.4803ZM54.6931 22.583H59.3367C60.3217 22.583 61.1942 22.4431 61.9822 22.1913C62.7702 21.9114 63.4456 21.5476 63.9803 21.0159C64.5151 20.5122 64.9372 19.8686 65.2186 19.113C65.5001 18.3574 65.6408 17.4899 65.6408 16.5384V15.447C65.6408 14.4676 65.5001 13.6 65.2186 12.8724C64.9372 12.1169 64.5151 11.5012 63.9803 10.9695C63.4175 10.4378 62.7702 10.046 61.9822 9.79415C61.1942 9.5143 60.3217 9.40236 59.3367 9.40236H54.6931V22.583ZM86.9733 27.8721C85.2847 27.8721 83.7368 27.7602 82.2734 27.5083C80.8099 27.2844 79.5435 26.8647 78.4459 26.305C77.3483 25.7453 76.4759 24.9617 75.8567 23.9823C75.2376 23.0028 74.928 21.7715 74.928 20.3163C74.928 20.2603 74.928 20.1764 74.928 20.0924C74.928 20.0085 74.928 19.9245 74.9562 19.8406H81.2321C81.2039 19.9245 81.2039 20.0365 81.1758 20.1204C81.1758 20.2324 81.1476 20.3163 81.1476 20.4003C81.1476 21.0999 81.3728 21.6316 81.8231 22.0513C82.2734 22.4711 82.8925 22.751 83.7087 22.9189C84.5248 23.0868 85.4535 23.1707 86.523 23.1707C87.0295 23.1707 87.5361 23.1427 88.0427 23.1147C88.5212 23.0868 88.9996 23.0308 89.4217 22.9189C89.8439 22.8349 90.2097 22.695 90.5474 22.5271C90.8852 22.3592 91.1384 22.1633 91.3073 21.9394C91.5043 21.7155 91.5887 21.4357 91.5887 21.0999C91.5887 20.6241 91.3636 20.2044 90.9133 19.9245C90.463 19.6167 89.8439 19.3648 89.084 19.1689C88.3241 18.973 87.4517 18.7772 86.4948 18.6093C85.538 18.4413 84.5248 18.2455 83.5117 18.0496C82.4704 17.8537 81.4854 17.5738 80.5285 17.238C79.5716 16.9022 78.6992 16.4824 77.9393 15.9507C77.1795 15.419 76.5603 14.7754 76.11 13.9638C75.6597 13.1523 75.4346 12.1728 75.4346 11.0255C75.4346 9.82213 75.716 8.78671 76.2789 7.8912C76.8417 7.02369 77.6298 6.29609 78.6429 5.70841C79.6561 5.14873 80.8381 4.72896 82.1889 4.44911C83.5398 4.16927 85.0033 4.05733 86.5793 4.05733C88.1553 4.05733 89.5906 4.19725 90.9414 4.44911C92.2642 4.72896 93.418 5.12074 94.403 5.70841C95.3881 6.2681 96.1198 6.9957 96.6826 7.86322C97.2174 8.73074 97.4988 9.76616 97.5269 10.9415V11.3333H91.3073V11.1094C91.3073 10.6337 91.1384 10.1859 90.8007 9.79415C90.463 9.40236 89.9564 9.12252 89.281 8.89864C88.6337 8.67477 87.8175 8.56283 86.8325 8.56283C85.7631 8.56283 84.8625 8.64678 84.1589 8.78671C83.4554 8.95461 82.9207 9.17849 82.5548 9.45833C82.2171 9.73818 82.0482 10.074 82.0482 10.4658C82.0482 10.9415 82.2734 11.3053 82.7237 11.6131C83.1739 11.893 83.7931 12.1448 84.553 12.3407C85.3128 12.5366 86.1853 12.7045 87.1421 12.8445C88.099 13.0124 89.1121 13.1803 90.1253 13.3762C91.1666 13.572 92.1516 13.8239 93.1085 14.1317C94.0653 14.4396 94.9378 14.8593 95.6976 15.3631C96.4575 15.8668 97.0766 16.5104 97.5269 17.294C97.9772 18.0775 98.2024 19.029 98.2024 20.1204C98.2024 21.9394 97.7239 23.4226 96.7389 24.542C95.7539 25.6613 94.4312 26.4729 92.7426 27.0046C91.0259 27.6202 89.1121 27.8721 86.9733 27.8721ZM108.7 27.4803V9.71019H99.9473V4.53307H123.869V9.71019H115.145V27.4803H108.7ZM121.449 27.4803L131.468 4.53307H138.869L148.916 27.4803H141.965L140.389 23.6465H129.61L128.034 27.4803H121.449ZM131.439 18.9171H138.503L136.618 14.1877C136.533 13.9358 136.421 13.628 136.28 13.2642C136.139 12.9004 135.999 12.5086 135.858 12.0889C135.717 11.6691 135.576 11.2493 135.436 10.8576C135.295 10.4658 135.182 10.13 135.098 9.8781H134.873C134.732 10.2699 134.563 10.7456 134.394 11.3053C134.197 11.865 134.029 12.3687 133.832 12.9004C133.663 13.4041 133.494 13.8519 133.353 14.2157L131.439 18.9171ZM151.449 27.4803V4.53307H171.656V9.37438H157.866V14.1877H170.08V19.001H157.866V27.4803H151.449ZM175.089 27.4803V4.53307H181.506V27.4803H175.089ZM186.544 27.4803V4.53307H192.257L202.444 15.2231C202.641 15.391 202.895 15.6429 203.176 15.9787C203.458 16.3145 203.739 16.6224 204.049 16.9582C204.358 17.294 204.583 17.5738 204.78 17.8257L205.006 17.7977C205.006 17.3779 205.006 16.9022 204.977 16.3705C204.977 15.8388 204.949 15.3631 204.949 14.9713V4.53307H211V27.4803H205.315L195.015 16.6224C194.621 16.2026 194.199 15.7548 193.776 15.2791C193.354 14.8034 193.017 14.4116 192.763 14.1038L192.538 14.1317C192.566 14.4676 192.566 14.8873 192.566 15.391C192.566 15.8948 192.566 16.3985 192.566 16.8742V27.4523H186.544V27.4803Z" fill="#0F0F0F"/>
<path d="M12.2124 22.1818C8.77943 22.1818 5.96551 19.4126 5.96551 15.972C5.96551 12.5315 8.75129 9.79021 12.2124 9.79021C15.6454 9.79021 18.4593 12.5594 18.4593 16C18.4593 19.4406 15.6454 22.1818 12.2124 22.1818ZM0 0V8H24.1434V24H0V32H16.0956C24.9876 32 32.1913 24.8392 32.1913 16C32.1631 7.16084 24.9595 0 16.0956 0H0Z" fill="#0F0F0F"/>
</svg>
