<svg width="406" height="186" viewBox="0 0 406 186" fill="none" xmlns="http://www.w3.org/2000/svg">
<path d="M50.6696 80.496H57.0006V74.165C57.0006 64.4687 59.2086 59.0132 61.9301 56.0033C64.5425 53.1141 68.5514 51.4684 74.6009 51.4684C79.3274 51.4684 82.1761 52.8406 83.8602 54.5689C85.5691 56.3228 86.8831 59.27 86.8831 63.9721C86.8831 71.0201 82.4633 77.4054 72.7346 85.6123C68.1813 89.4533 62.8426 93.3933 56.8329 97.8284C56.5527 98.0352 56.2709 98.2431 55.9878 98.4522C49.6955 103.097 42.7907 108.221 35.7666 114.055L35.7588 114.062L35.7511 114.068C21.5347 125.954 6.66899 143.296 6.66899 171.441V177.772H13H130.884H137.215V171.441V141.084V134.753H130.884H82.871C84.5733 133.465 86.3515 132.143 88.195 130.775C88.4438 130.591 88.6937 130.406 88.9444 130.22C95.7059 125.206 103.157 119.681 110.045 113.5C124.32 100.69 137.215 84.1492 137.215 61.3131C137.215 44.9476 130.942 31.4664 119.707 22.1952C108.613 13.0406 93.2571 8.44926 75.7088 8.44926C53.8016 8.44926 36.8196 14.685 25.3563 26.6272C13.9389 38.5215 8.88485 55.1538 8.88485 74.165V80.496H15.2159H50.6696Z" fill="#050505" stroke="white" stroke-width="12.662"/>
<path d="M119.216 93.2137C119.216 115.872 124.81 137.355 136.993 153.335C149.343 169.535 168.076 179.537 192.909 179.537C217.745 179.537 236.428 169.532 248.724 153.322C260.848 137.339 266.381 115.858 266.381 93.2137C266.381 70.5696 260.848 49.0383 248.731 33.0034C236.442 16.7413 217.759 6.66899 192.909 6.66899C168.062 6.66899 149.329 16.7382 136.986 32.9913C124.81 49.023 119.216 70.5563 119.216 93.2137ZM216.049 93.2137C216.049 108.147 214.261 119.255 210.444 126.448C208.602 129.921 206.359 132.341 203.704 133.93C201.045 135.521 197.575 136.518 192.909 136.518C188.243 136.518 184.753 135.521 182.066 133.922C179.383 132.325 177.114 129.895 175.248 126.42C171.387 119.23 169.547 108.126 169.547 93.2137C169.547 78.3036 171.386 67.1351 175.256 59.8817C177.128 56.3729 179.403 53.9182 182.088 52.3053C184.773 50.6924 188.256 49.6881 192.909 49.6881C197.563 49.6881 201.025 50.6925 203.682 52.2975C206.339 53.9023 208.588 56.3473 210.437 59.8538C214.262 67.1099 216.049 78.283 216.049 93.2137Z" fill="#050505" stroke="white" stroke-width="12.662"/>
<path d="M252.167 93.2137C252.167 115.872 257.761 137.355 269.944 153.335C282.294 169.535 301.028 179.537 325.86 179.537C350.696 179.537 369.379 169.532 381.675 153.322C393.799 137.339 399.332 115.858 399.332 93.2137C399.332 70.5696 393.799 49.0383 381.682 33.0034C369.393 16.7413 350.71 6.66899 325.86 6.66899C301.013 6.66899 282.281 16.7382 269.937 32.9913C257.761 49.023 252.167 70.5563 252.167 93.2137ZM349 93.2137C349 108.147 347.212 119.255 343.396 126.448C341.553 129.921 339.311 132.341 336.655 133.93C333.996 135.521 330.526 136.518 325.86 136.518C321.194 136.518 317.704 135.521 315.018 133.922C312.334 132.325 310.065 129.895 308.199 126.42C304.338 119.23 302.499 108.126 302.499 93.2137C302.499 78.3036 304.337 67.1351 308.207 59.8817C310.079 56.3729 312.354 53.9182 315.039 52.3053C317.724 50.6924 321.207 49.6881 325.86 49.6881C330.514 49.6881 333.976 50.6925 336.633 52.2975C339.29 53.9023 341.539 56.3473 343.388 59.8538C347.213 67.1099 349 78.283 349 93.2137Z" fill="#050505" stroke="white" stroke-width="12.662"/>
</svg>
