<svg width="48" height="48" viewBox="0 0 48 48" fill="none" xmlns="http://www.w3.org/2000/svg">
<rect x="2.96429" y="2.96429" width="42.0714" height="42.0714" rx="21.0357" fill="#2E7FF3"/>
<path d="M20.3806 16.7622L19.0234 18.1193" stroke="white" stroke-width="1.35714" stroke-linecap="round" stroke-linejoin="round"/>
<path d="M19.0234 15.4053L20.3806 16.7624" stroke="white" stroke-width="1.35714" stroke-linecap="round" stroke-linejoin="round"/>
<path d="M18.5698 16.7622C17.0706 16.7622 15.8555 17.9773 15.8555 19.4765" stroke="white" stroke-width="1.35714" stroke-linecap="round" stroke-linejoin="round"/>
<path d="M18.5703 16.7629H20.3798" stroke="white" stroke-width="1.35714" stroke-linecap="round" stroke-linejoin="round"/>
<path d="M27.6172 31.239L28.9743 29.8818" stroke="white" stroke-width="1.35714" stroke-linecap="round" stroke-linejoin="round"/>
<path d="M28.9743 32.5964L27.6172 31.2393" stroke="white" stroke-width="1.35714" stroke-linecap="round" stroke-linejoin="round"/>
<path d="M29.4277 31.2392C30.9269 31.2392 32.142 30.0241 32.142 28.5249" stroke="white" stroke-width="1.35714" stroke-linecap="round" stroke-linejoin="round"/>
<path d="M29.4267 31.238H27.6172" stroke="white" stroke-width="1.35714" stroke-linecap="round" stroke-linejoin="round"/>
<path fill-rule="evenodd" clip-rule="evenodd" d="M21.736 31.238C24.4729 31.238 26.7121 28.9987 26.7121 26.2618C26.7121 23.5249 24.4729 21.2856 21.736 21.2856C18.9991 21.2856 16.7598 23.5249 16.7598 26.2618C16.7598 27.3783 17.1371 28.4088 17.7641 29.2403C18.6733 30.45 20.1155 31.238 21.736 31.238Z" stroke="white" stroke-width="1.35714" stroke-linecap="round" stroke-linejoin="round"/>
<path d="M29.7781 18.2202C31.7134 20.1555 31.7134 23.3222 29.7781 25.2575C29.6234 25.4122 29.4542 25.5415 29.2832 25.6673" stroke="white" stroke-width="1.35714" stroke-linecap="round" stroke-linejoin="round"/>
<path d="M29.7778 18.2205C27.8425 16.2852 24.6758 16.2852 22.7406 18.2205C22.5867 18.3743 22.4546 18.5417 22.3262 18.7109" stroke="white" stroke-width="1.35714" stroke-linecap="round" stroke-linejoin="round"/>
<rect x="2.96429" y="2.96429" width="42.0714" height="42.0714" rx="21.0357" stroke="white" stroke-width="4.07143"/>
</svg>
