<svg width="347" height="67" viewBox="0 0 347 67" fill="none" xmlns="http://www.w3.org/2000/svg">
<g clip-path="url(#clip0_24483_97113)">
<path d="M15.5041 30.16H40.7601V43.096H15.5041V66.328H-0.335938V3.408H46.4801V16.344H15.5041V30.16Z" fill="#050505"/>
<path d="M77.7228 67.736C57.7468 67.736 46.5708 53.832 46.5708 34.824C46.5708 15.904 57.7468 2 77.7228 2C97.5228 2 108.875 15.904 108.875 34.824C108.875 53.832 97.5228 67.736 77.7228 67.736ZM77.7228 54.8C89.1628 54.8 93.0348 45.824 93.0348 34.824C93.0348 23.912 89.1628 14.936 77.7228 14.936C66.1948 14.936 62.4108 23.912 62.4108 34.824C62.4108 45.824 66.1948 54.8 77.7228 54.8Z" fill="#050505"/>
<path d="M113.191 3.408H129.031V53.392H157.015V66.328H113.191V3.408Z" fill="#050505"/>
<path d="M161.189 3.408H177.029V53.392H205.013V66.328H161.189V3.408Z" fill="#050505"/>
<path d="M235.552 67.736C215.576 67.736 204.4 53.832 204.4 34.824C204.4 15.904 215.576 2 235.552 2C255.352 2 266.704 15.904 266.704 34.824C266.704 53.832 255.352 67.736 235.552 67.736ZM235.552 54.8C246.992 54.8 250.864 45.824 250.864 34.824C250.864 23.912 246.992 14.936 235.552 14.936C224.024 14.936 220.24 23.912 220.24 34.824C220.24 45.824 224.024 54.8 235.552 54.8Z" fill="#050505"/>
<path d="M264.044 3.408H279.884L287.98 46.088H288.156L297.924 3.408H312.884L322.652 46.088H322.828L330.924 3.408H346.764L330.748 66.328H314.908L305.492 27.08H305.316L295.9 66.328H280.06L264.044 3.408Z" fill="#050505"/>
<path d="M-3 154.328V91.408H24.896C42.408 91.408 52.968 102.672 52.968 122.912C52.968 143.152 43.288 154.328 25.776 154.328H-3ZM12.84 104.344V141.392H23.312C33.168 141.392 37.128 134.352 37.128 122.912C37.128 111.472 33.168 104.344 23.312 104.344H12.84Z" fill="#050505"/>
<path d="M83.7749 115.256C95.6549 118.512 107.887 122.384 107.887 135.848C107.887 147.904 98.7349 155.736 82.9829 155.736C66.6149 155.736 54.2949 147.64 54.2949 133.648H70.1349C70.1349 140.336 75.9429 142.8 82.9829 142.8C88.8789 142.8 92.0469 140.512 92.0469 137.344C92.0469 132.328 85.2709 131.184 76.3829 128.544C65.5589 125.376 56.0549 120.712 56.0549 109.096C56.0549 95.368 66.7909 90 80.3429 90C95.0389 90 106.567 97.744 107.007 110.504H91.1669C90.4629 105.752 86.4149 102.936 80.3429 102.936C75.5909 102.936 71.8949 104.432 71.8949 107.952C71.8949 111.824 75.8549 113.056 83.7749 115.256Z" fill="#050505"/>
<path d="M125.757 154.328V104.344H107.453V91.408H159.813V104.344H141.597V154.328H125.757Z" fill="#050505"/>
<path d="M192.995 141.216H171.435L167.387 154.328H151.547L174.339 91.408H190.179L212.883 154.328H197.043L192.995 141.216ZM175.043 129.16H189.475L182.347 105.928H182.171L175.043 129.16Z" fill="#050505"/>
<path d="M231.386 118.16H256.642V131.096H231.386V154.328H215.546V91.408H262.362V104.344H231.386V118.16Z" fill="#050505"/>
<path d="M266.811 91.408H282.651V154.328H266.811V91.408Z" fill="#050505"/>
<path d="M289.542 154.328V91.408H305.382L327.382 128.808H327.558V91.408H343.398V154.328H327.558L305.558 116.928H305.382V154.328H289.542Z" fill="#050505"/>
</g>
<defs>
<clipPath id="clip0_24483_97113">
<rect width="347" height="67" fill="white"/>
</clipPath>
</defs>
</svg>
