<svg width="347" height="67" viewBox="0 0 347 67" fill="none" xmlns="http://www.w3.org/2000/svg">
<g clip-path="url(#clip0_24483_97114)">
<path d="M18.5041 -58.84H43.7601V-45.904H18.5041V-22.672H2.66406V-85.592H49.4801V-72.656H18.5041V-58.84Z" fill="#050505"/>
<path d="M80.7228 -21.264C60.7468 -21.264 49.5708 -35.168 49.5708 -54.176C49.5708 -73.096 60.7468 -87 80.7228 -87C100.523 -87 111.875 -73.096 111.875 -54.176C111.875 -35.168 100.523 -21.264 80.7228 -21.264ZM80.7228 -34.2C92.1628 -34.2 96.0348 -43.176 96.0348 -54.176C96.0348 -65.088 92.1628 -74.064 80.7228 -74.064C69.1948 -74.064 65.4108 -65.088 65.4108 -54.176C65.4108 -43.176 69.1948 -34.2 80.7228 -34.2Z" fill="#050505"/>
<path d="M116.191 -85.592H132.031V-35.608H160.015V-22.672H116.191V-85.592Z" fill="#050505"/>
<path d="M164.189 -85.592H180.029V-35.608H208.013V-22.672H164.189V-85.592Z" fill="#050505"/>
<path d="M238.552 -21.264C218.576 -21.264 207.4 -35.168 207.4 -54.176C207.4 -73.096 218.576 -87 238.552 -87C258.352 -87 269.704 -73.096 269.704 -54.176C269.704 -35.168 258.352 -21.264 238.552 -21.264ZM238.552 -34.2C249.992 -34.2 253.864 -43.176 253.864 -54.176C253.864 -65.088 249.992 -74.064 238.552 -74.064C227.024 -74.064 223.24 -65.088 223.24 -54.176C223.24 -43.176 227.024 -34.2 238.552 -34.2Z" fill="#050505"/>
<path d="M267.044 -85.592H282.884L290.98 -42.912H291.156L300.924 -85.592H315.884L325.652 -42.912H325.828L333.924 -85.592H349.764L333.748 -22.672H317.908L308.492 -61.92H308.316L298.9 -22.672H283.06L267.044 -85.592Z" fill="#050505"/>
<path d="M0 65.328V2.408H27.896C45.408 2.408 55.968 13.672 55.968 33.912C55.968 54.152 46.288 65.328 28.776 65.328H0ZM15.84 15.344V52.392H26.312C36.168 52.392 40.128 45.352 40.128 33.912C40.128 22.472 36.168 15.344 26.312 15.344H15.84Z" fill="#050505"/>
<path d="M86.7749 26.256C98.6549 29.512 110.887 33.384 110.887 46.848C110.887 58.904 101.735 66.736 85.9829 66.736C69.6149 66.736 57.2949 58.64 57.2949 44.648H73.1349C73.1349 51.336 78.9429 53.8 85.9829 53.8C91.8789 53.8 95.0469 51.512 95.0469 48.344C95.0469 43.328 88.2709 42.184 79.3829 39.544C68.5589 36.376 59.0549 31.712 59.0549 20.096C59.0549 6.368 69.7909 1 83.3429 1C98.0389 1 109.567 8.744 110.007 21.504H94.1669C93.4629 16.752 89.4149 13.936 83.3429 13.936C78.5909 13.936 74.8949 15.432 74.8949 18.952C74.8949 22.824 78.8549 24.056 86.7749 26.256Z" fill="#050505"/>
<path d="M128.757 65.328V15.344H110.453V2.408H162.813V15.344H144.597V65.328H128.757Z" fill="#050505"/>
<path d="M195.995 52.216H174.435L170.387 65.328H154.547L177.339 2.408H193.179L215.883 65.328H200.043L195.995 52.216ZM178.043 40.16H192.475L185.347 16.928H185.171L178.043 40.16Z" fill="#050505"/>
<path d="M234.386 29.16H259.642V42.096H234.386V65.328H218.546V2.408H265.362V15.344H234.386V29.16Z" fill="#050505"/>
<path d="M269.811 2.408H285.651V65.328H269.811V2.408Z" fill="#050505"/>
<path d="M292.542 65.328V2.408H308.382L330.382 39.808H330.558V2.408H346.398V65.328H330.558L308.558 27.928H308.382V65.328H292.542Z" fill="#050505"/>
</g>
<defs>
<clipPath id="clip0_24483_97114">
<rect width="347" height="67" fill="white"/>
</clipPath>
</defs>
</svg>
