<svg width="112" height="388" viewBox="0 0 112 388" fill="none" xmlns="http://www.w3.org/2000/svg">
<g clip-path="url(#clip0_24498_97171)">
<path d="M0.901574 -0.828323V-125H55.9539C90.5136 -125 111.354 -102.771 111.354 -62.8273C111.354 -22.884 92.2503 -0.828323 57.6906 -0.828323H0.901574ZM32.1616 -99.471V-26.3573H52.8279C72.2786 -26.3573 80.0936 -40.2507 80.0936 -62.8273C80.0936 -85.404 72.2786 -99.471 52.8279 -99.471H32.1616Z" fill="white"/>
<path d="M58.1783 52.0637C81.6233 58.4893 105.763 66.1307 105.763 92.7017C105.763 116.494 87.7017 131.95 56.6153 131.95C24.3133 131.95 0 115.973 0 88.36H31.26C31.26 101.559 42.722 106.421 56.6153 106.421C68.251 106.421 74.503 101.906 74.503 95.654C74.503 85.755 61.1307 83.4973 43.5903 78.2873C22.2293 72.0353 3.47333 62.831 3.47333 39.907C3.47333 12.815 24.6607 2.22134 51.4053 2.22134C80.4077 2.22134 103.158 17.504 104.026 42.6857H72.7663C71.377 33.3077 63.3883 27.7503 51.4053 27.7503C42.0273 27.7503 34.7333 30.7027 34.7333 37.6493C34.7333 45.2907 42.5483 47.722 58.1783 52.0637Z" fill="white"/>
<path d="M41.1502 187.795H90.9925V213.324H41.1502V259.172H9.89018V135H102.281V160.529H41.1502V187.795Z" fill="white"/>
<path d="M0.901574 389.172V265H55.9539C90.5136 265 111.354 287.229 111.354 327.173C111.354 367.116 92.2503 389.172 57.6906 389.172H0.901574ZM32.1616 290.529V363.643H52.8279C72.2786 363.643 80.0936 349.749 80.0936 327.173C80.0936 304.596 72.2786 290.529 52.8279 290.529H32.1616Z" fill="white"/>
</g>
<defs>
<clipPath id="clip0_24498_97171">
<rect width="112" height="388" fill="white"/>
</clipPath>
</defs>
</svg>
